HIERARCHY
ROOT Hips
{
  OFFSET 0 0 0
  CHANNELS 6 Xposition Yposition Zposition Zrotation Yrotation Xrotation
  JOINT LeftThigh
  {
    OFFSET 8.409438 0 -5.917753
    CHANNELS 3 Zrotation Yrotation Xrotation
    JOINT LeftLeg
    {
      OFFSET 0 0 -42.358652
      CHANNELS 3 Zrotation Yrotation Xrotation
      JOINT LeftFoot
      {
        OFFSET 0 0 -39.357303
        CHANNELS 3 Zrotation Yrotation Xrotation
      }
    }
  }
  JOINT RightThigh
  {
    OFFSET -8.409438 0 -5.917753
    CHANNELS 3 Zrotation Yrotation Xrotation
    JOINT RightLeg
    {
      OFFSET 0 0 -42.358652
      CHANNELS 3 Zrotation Yrotation Xrotation
      JOINT RightFoot
      {
        OFFSET 0 0 -39.357303
        CHANNELS 3 Zrotation Yrotation Xrotation
      }
    }
  }
  JOINT SpineLow
  {
    OFFSET 0 0 4.719101
    CHANNELS 3 Zrotation Yrotation Xrotation
    JOINT SpineMid
    {
      OFFSET 0 0 12.899191
      CHANNELS 3 Zrotation Yrotation Xrotation
      JOINT Chest
      {
        OFFSET 0 0 12.899191
        CHANNELS 3 Zrotation Yrotation Xrotation
        JOINT LeftShoulder
        {
          OFFSET 7.550562 1.41573 9.438202
          CHANNELS 3 Zrotation Yrotation Xrotation
          JOINT LeftArm
          {
            OFFSET 9.155056 0 4.247191
            CHANNELS 3 Zrotation Yrotation Xrotation
            JOINT LeftForearm
            {
              OFFSET 0 0 25.771955
              CHANNELS 3 Zrotation Yrotation Xrotation
              JOINT LeftHand
              {
                OFFSET 0 0 25.197169
                CHANNELS 3 Zrotation Yrotation Xrotation
              }
            }
          }
        }
        JOINT RightShoulder
        {
          OFFSET -7.550562 1.41573 9.438202
          CHANNELS 3 Zrotation Yrotation Xrotation
          JOINT RightArm
          {
            OFFSET -9.155056 0 4.247191
            CHANNELS 3 Zrotation Yrotation Xrotation
            JOINT RightForearm
            {
              OFFSET 0 0 -25.771955
              CHANNELS 3 Zrotation Yrotation Xrotation
              JOINT RightHand
              {
                OFFSET 0 0 -25.197169
                CHANNELS 3 Zrotation Yrotation Xrotation
              }
            }
          }
        }
        JOINT Neck
        {
          OFFSET 0 0 15.101124
          CHANNELS 3 Zrotation Yrotation Xrotation
          JOINT Head
          {
            OFFSET 0 0 11.325843
            CHANNELS 3 Zrotation Yrotation Xrotation
            End Site
            {
              OFFSET 0 0 14.157303
            }
          }
        }
      }
    }
  }
}
MOTION
Frames: 11
Frame Time: 0.0
0.0  89.887642  0.0  1.03385  31.161542  -93.811284  9.531591  -40.215911  0.594875  -9.947418  40.395437  36.386666  2.058615  4.603751  1.144825  -39.58104  0.577666  -41.098993  7.908043  17.453865  60.744303  6.621398  4.599151  2.585673  -3.101106  0.764148  0.916635  -8.449059  2.201868  2.403712  -8.449058  2.201868  2.403712  -16.145981  16.289256  4.233989  142.657915  42.922563  -145.147932  -24.071096  -10.828812  62.2815  74.01882  12.562095  14.376551  6.012322  -4.405737  21.844173  1.399528  56.987279  -24.67498  -21.252851  -11.637222  -80.828454  65.014731  -0.798997  -40.275487  -22.004588  -3.130245  3.012599  -16.484397  -2.46005  2.14931  
0.0  89.887642  0.0  0.912813  30.883572  -93.977549  9.589796  -40.321545  0.716039  -10.154608  40.493651  36.210973  2.115379  4.593457  1.19513  -39.678304  0.499119  -41.153746  7.911824  17.555166  60.713153  6.775953  4.655087  2.594982  -3.113258  0.755918  0.94459  -8.481583  2.183418  2.48063  -8.481583  2.183418  2.48063  -16.039628  16.212567  4.095783  142.825873  42.680873  -145.177588  -24.286431  -10.872696  62.192814  74.024531  12.677428  14.463296  6.062738  -4.487384  21.746448  2.016829  57.302199  -24.343332  -21.194191  -11.482126  -80.643857  65.048967  -0.445745  -39.990897  -21.425854  -2.965332  3.024929  -16.05161  -2.333561  2.16724  
0.0  89.887642  0.0  0.839912  30.866805  -93.97641  9.421415  -40.311668  0.679726  -10.162253  40.551562  36.199317  2.195072  4.6266  1.255035  -39.687359  0.427426  -41.217648  7.886568  17.594651  60.749452  6.797159  4.655017  2.588919  -3.146882  0.752966  0.946722  -8.573528  2.176866  2.485671  -8.573529  2.176866  2.485671  -16.065574  16.16319  3.990587  143.035109  42.546523  -145.384395  -24.459361  -10.779824  62.300607  74.036642  12.761286  14.482517  6.195185  -4.502188  21.677631  2.210645  57.442771  -24.222338  -21.127604  -11.370614  -80.52507  65.071648  -0.248249  -40.04544  -21.343763  -2.998166  3.008209  -15.989886  -2.357202  2.153898  
0.0  89.887642  0.0  0.673355  30.711387  -94.139271  9.366809  -40.397779  0.764719  -10.325511  40.656998  36.050228  2.388882  4.664665  1.369393  -39.801672  0.363981  -41.2443  7.900504  17.544855  60.811098  6.811935  4.680257  2.557962  -3.15758  0.739225  0.960389  -8.60276  2.141546  2.524369  -8.602761  2.141546  2.524368  -16.136051  16.107731  3.919246  143.171342  42.385542  -145.564814  -24.65747  -10.812278  62.447898  74.02842  12.850326  14.48223  5.921861  -4.575383  21.531534  2.846265  57.721824  -23.773034  -20.97938  -11.224961  -80.399874  65.172822  0.113635  -39.986969  -21.172322  -2.980873  3.01785  -15.861412  -2.343647  2.16254  
0.0  89.887642  0.0  0.593672  30.715552  -94.036602  9.345249  -40.416171  0.560769  -10.298627  40.68023  36.085679  2.380775  4.705335  1.428167  -39.803373  0.179122  -41.402904  7.966838  17.507175  60.958911  6.824534  4.702943  2.539664  -3.177004  0.735916  0.954868  -8.656155  2.13252  2.509074  -8.656156  2.13252  2.509074  -16.32953  15.994394  3.76533  143.261467  42.239279  -145.91885  -24.728614  -10.837774  62.803212  73.90406  12.945473  14.413412  5.926992  -4.59062  21.349814  3.313301  57.882795  -23.353939  -21.016234  -11.134284  -80.287508  65.297731  0.430965  -40.202605  -21.17884  -3.092746  2.990296  -15.865603  -2.426748  2.137886  
0.0  89.887642  0.0  0.544577  30.64883  -93.87237  9.679134  -40.43356  0.273825  -10.587748  40.740061  35.940065  2.398584  4.70102  1.479732  -40.039091  -0.061007  -41.690292  7.962249  17.466997  61.021672  7.048132  4.838111  2.554404  -3.239809  0.74043  0.9253  -8.828703  2.143211  2.425686  -8.828703  2.143211  2.425686  -16.259032  15.872563  3.637051  143.141055  42.020919  -146.249643  -24.797018  -11.185884  63.119866  73.6299  13.060614  14.277599  5.781577  -4.656916  21.11239  4.254726  58.176447  -22.620953  -21.002035  -11.014977  -80.216345  65.420582  0.853438  -40.488889  -20.906814  -3.149923  3.008881  -15.661117  -2.468904  2.151159  
0.0  89.887642  0.0  0.511364  30.441548  -93.710923  10.192206  -40.435458  -0.034901  -11.029555  40.722085  35.690246  2.360537  4.778593  1.536492  -39.923705  -0.463101  -41.862216  8.371125  17.290045  61.240389  7.036147  4.887243  2.54603  -3.218883  0.744804  0.917348  -8.771625  2.153344  2.404119  -8.771625  2.153344  2.40412  -16.578445  15.718633  3.419537  143.048439  41.884218  -146.797908  -24.994339  -11.278158  63.909003  73.533917  13.345241  14.197646  5.700058  -4.656379  20.883429  4.941498  58.337713  -22.008816  -21.159156  -10.841886  -80.06763  65.453321  1.296852  -40.707028  -20.962155  -3.332035  2.974729  -15.701419  -2.604794  2.1189  
0.0  89.887642  0.0  0.542733  30.107754  -93.514019  10.829448  -40.409867  -0.306301  -11.644183  40.75868  35.259925  2.483573  4.894139  1.629457  -39.899216  -0.927785  -42.124238  8.882836  17.016684  61.469929  7.085498  5.010893  2.524941  -3.241444  0.783344  0.886541  -8.833213  2.255153  2.314201  -8.833213  2.255153  2.314201  -16.738475  15.441666  3.275327  143.267259  41.736404  -147.262113  -25.483044  -11.156149  64.984344  73.782354  13.800384  14.213391  5.523015  -4.841353  20.635566  6.467138  58.692963  -20.86352  -21.30064  -10.68622  -79.960851  65.386358  1.763729  -40.930431  -20.740563  -3.522351  3.035576  -15.533488  -2.748637  2.159169  
0.0  89.887642  0.0  0.629629  29.552872  -93.24274  11.575956  -40.352663  -0.511044  -12.090462  40.733964  34.884338  2.482864  4.971363  1.659998  -39.554888  -1.555417  -42.355419  9.640891  16.806629  61.758852  7.061257  5.078533  2.475909  -3.154945  0.818697  0.866412  -8.596427  2.346052  2.257777  -8.596427  2.346052  2.257778  -17.403507  15.20715  3.025599  143.527818  41.680422  -147.617546  -26.016062  -10.861369  66.27987  74.170831  14.280075  14.09251  5.258109  -5.012995  20.295513  7.814063  58.994446  -19.670818  -21.443865  -10.615298  -79.701225  65.192737  2.237689  -41.165998  -20.851431  -3.79082  3.027966  -15.614541  -2.950598  2.143519  
0.0  89.887642  0.0  0.824957  28.818672  -92.913796  12.246561  -40.127034  -0.610772  -12.443603  40.672541  34.50058  2.539543  5.039422  1.685379  -39.141197  -2.203515  -42.685228  10.691313  16.47342  62.201551  6.984783  5.061655  2.360149  -3.053551  0.886152  0.85043  -8.317931  2.524729  2.209488  -8.317932  2.524729  2.209488  -18.270423  14.812637  2.568671  144.068743  41.61484  -147.896122  -26.217833  -10.674741  67.720685  74.384757  14.591024  13.555366  4.903755  -5.387295  19.755266  10.326153  59.501923  -17.586534  -21.67127  -10.682093  -79.274631  64.918147  2.669153  -41.443482  -20.903171  -4.130336  3.01247  -15.650673  -3.20533  2.119737  
0.0  89.887642  0.0  1.019229  27.739506  -92.545723  13.041505  -39.903555  -0.446187  -12.638372  40.453971  34.033581  2.475155  5.116955  1.67384  -38.241416  -2.905295  -43.112545  11.40515  16.480171  62.685039  7.131164  5.047088  2.250757  -2.895533  0.969772  0.837618  -7.884123  2.74628  2.170874  -7.884123  2.74628  2.170874  -19.292041  14.173998  2.054596  144.828515  41.665898  -148.111347  -25.827231  -10.765731  69.40081  74.68237  14.627751  12.623201  4.411174  -5.961053  18.928917  14.04294  60.138788  -14.297112  -21.779321  -10.986918  -78.868876  64.638892  2.865205  -41.649267  -21.004852  -4.587346  2.992606  -15.723186  -3.548421  2.088113  
